HIERARCHY
ROOT Hips
{
	OFFSET	0.00	0.00	0.00
	CHANNELS 6 Xposition Yposition Zposition Zrotation Xrotation Yrotation
	JOINT LeftUpLeg
	{
		OFFSET	 0.126116	-0.014019	-0.065224
		CHANNELS 3 Zrotation Xrotation Yrotation
		JOINT LeftLeg
		{
			OFFSET	 0.000000	 0.000000	 0.569914
			CHANNELS 3 Zrotation Xrotation Yrotation
			JOINT LeftFoot
			{
				OFFSET	 0.000000	 0.000000	 0.544423
				CHANNELS 3 Zrotation Xrotation Yrotation
				JOINT LeftToeBase
				{
					OFFSET	 0.000000	 0.000000	 0.207117
					CHANNELS 3 Zrotation Xrotation Yrotation
					End Site
					{
						OFFSET	 0.000000	 0.000000	 0.207117
					}
				}
			}
		}
	}
	JOINT RightUpLeg
	{
		OFFSET	-0.124023	-0.008373	-0.065224
		CHANNELS 3 Zrotation Xrotation Yrotation
		JOINT RightLeg
		{
			OFFSET	 0.000000	 0.000000	 0.570047
			CHANNELS 3 Zrotation Xrotation Yrotation
			JOINT RightFoot
			{
				OFFSET	 0.000000	 0.000000	 0.544354
				CHANNELS 3 Zrotation Xrotation Yrotation
				JOINT RightToeBase
				{
					OFFSET	 0.000000	 0.000000	 0.207540
					CHANNELS 3 Zrotation Xrotation Yrotation
					End Site
					{
						OFFSET	 0.000000	 0.000000	 0.207540
					}
				}
			}
		}
	}
	JOINT Spine
	{
		OFFSET	 0.000184	-0.007763	 0.117403
		CHANNELS 3 Zrotation Xrotation Yrotation
		JOINT Spine1
		{
			OFFSET	 0.000000	 0.000000	 0.137269
			CHANNELS 3 Zrotation Xrotation Yrotation
			JOINT Spine2
			{
				OFFSET	 0.000000	 0.000000	 0.156879
				CHANNELS 3 Zrotation Xrotation Yrotation
				JOINT LeftShoulder
				{
					OFFSET	 0.080501	-0.002496	 0.160144
					CHANNELS 3 Zrotation Xrotation Yrotation
					JOINT LeftArm
					{
						OFFSET	 0.000000	 0.000000	 0.164363
						CHANNELS 3 Zrotation Xrotation Yrotation
						JOINT LeftForeArm
						{
							OFFSET	 0.000000	 0.000000	 0.364576
							CHANNELS 3 Zrotation Xrotation Yrotation
							JOINT LeftHand
							{
								OFFSET	 0.000000	 0.000000	 0.360812
								CHANNELS 3 Zrotation Xrotation Yrotation
								JOINT LeftHandIndex1
								{
									OFFSET	 0.000000	 0.000000	 0.086006
									CHANNELS 3 Zrotation Xrotation Yrotation
									JOINT LeftHandIndex2
									{
										OFFSET	 0.000000	 0.000000	 0.047236
										CHANNELS 3 Zrotation Xrotation Yrotation
										JOINT LeftHandIndex3
										{
											OFFSET	-0.004284	-0.000551	 0.038166
											CHANNELS 3 Zrotation Xrotation Yrotation
											End Site
											{
												OFFSET	-0.004284	-0.000551	 0.038166
											}
										}
									}
								}
							}
						}
					}
				}
				JOINT Neck
				{
					OFFSET	 0.000000	 0.000000	 0.176489
					CHANNELS 3 Zrotation Xrotation Yrotation
					JOINT Head
					{
						OFFSET	 0.000000	-0.001747	 0.077940
						CHANNELS 3 Zrotation Xrotation Yrotation
						End Site
						{
							OFFSET	 0.000000	-0.001747	 0.077940
						}
					}
				}
				JOINT RightShoulder
				{
					OFFSET	-0.080363	 0.000306	 0.159706
					CHANNELS 3 Zrotation Xrotation Yrotation
					JOINT RightArm
					{
						OFFSET	 0.000000	 0.000000	 0.164196
						CHANNELS 3 Zrotation Xrotation Yrotation
						JOINT RightForeArm
						{
							OFFSET	 0.000000	 0.000000	 0.365611
							CHANNELS 3 Zrotation Xrotation Yrotation
							JOINT RightHand
							{
								OFFSET	 0.000000	 0.000000	 0.360648
								CHANNELS 3 Zrotation Xrotation Yrotation
								JOINT RightHandIndex1
								{
									OFFSET	 0.000000	 0.000000	 0.069977
									CHANNELS 3 Zrotation Xrotation Yrotation
									JOINT RightHandIndex2
									{
										OFFSET	 0.000000	 0.000000	 0.052305
										CHANNELS 3 Zrotation Xrotation Yrotation
										JOINT RightHandIndex3
										{
											OFFSET	 0.009002	-0.000782	 0.042196
											CHANNELS 3 Zrotation Xrotation Yrotation
											End Site
											{
												OFFSET	 0.009002	-0.000782	 0.042196
											}
										}
									}
								}
							}
						}
					}
				}
			}
		}
	}
}
MOTION
Frames:    10
Frame Time: 0.03333334
-0.037749	 0.234848	 1.054328	 1.652106	 33.555930	-7.300478	 16.492010	-81.733640	-164.282500	 6.084913	-69.993320	 6.112171	 0.722315	 76.419920	-0.764114	-2.385832	 28.452790	-0.000001	 66.802270	-78.308620	-117.375700	-16.238170	-72.883710	-10.612030	 25.277180	 74.980960	-14.163200	 2.384659	 28.388700	-0.000001	-10.774050	 14.541310	 1.485614	-2.547920	 19.765050	 3.136950	-0.649891	 0.373737	 2.396231	-99.170170	 68.202710	 156.766200	 8.411972	-5.522852	-56.628380	-22.815600	 2.571666	-9.321609	-34.131890	-64.479210	-22.064330	-2.027600	 6.559038	 9.033609	-5.188889	 0.308190	 3.541030	-5.234859	 0.342567	 0.430617	 0.399498	 17.827370	-6.121955	 1.171778	-26.878130	-0.161557	 97.463170	 64.643040	-159.187600	-5.428708	 4.824980	 50.998180	 4.502539	 9.623081	 38.389900	 10.937110	-63.806080	 12.246420	 1.803333	 3.979147	-15.098590	 4.898592	 3.004813	-9.310344	 5.224449	 0.395017	 2.014677
-0.036339	 0.234569	 1.063229	 1.373647	 32.977830	-6.919709	 13.368500	-80.422790	-167.465600	 5.493197	-68.808050	 5.512639	 0.700589	 75.945090	-0.758827	-2.385832	 28.452790	-0.000001	 59.862930	-77.814560	-124.296200	-15.596480	-71.555870	-9.924355	 24.406990	 74.522760	-13.241800	 2.384659	 28.388700	-0.000001	-10.453330	 14.363850	 1.476547	-2.544188	 19.836250	 3.194758	-0.202619	-0.080763	 2.096483	-99.060180	 68.189060	 157.124100	 8.802421	-4.368083	-56.902820	-22.717030	 2.582595	-9.343837	-33.827870	-64.820780	-21.671740	-2.027600	 6.559038	 9.033609	-5.188889	 0.308190	 3.541030	-5.234859	 0.342567	 0.430617	 0.083285	 16.092390	-5.301059	 1.383652	-25.194430	-0.435064	 97.373470	 64.587880	-159.471700	-5.956882	 5.051630	 50.354080	 4.665721	 10.010340	 39.276610	 11.103960	-64.127940	 12.654070	 1.803333	 3.979147	-15.098590	 4.898592	 3.004813	-9.310344	 5.224449	 0.395017	 2.014677
-0.034933	 0.234225	 1.072775	 1.197146	 32.362290	-6.590679	 10.625560	-78.995390	-170.156000	 5.085975	-67.477930	 5.085143	 0.584276	 75.329210	-0.769512	-2.385832	 28.452790	-0.000001	 53.069740	-77.109330	-130.973100	-15.018010	-70.140980	-9.295236	 23.440600	 73.993870	-12.257400	 2.384659	 28.388700	-0.000001	-10.117510	 14.176420	 1.483209	-2.519299	 19.983010	 3.201472	 0.197628	-0.621494	 1.803739	-98.804340	 68.446530	 157.526900	 9.247774	-2.916088	-57.428840	-22.561470	 2.592742	-9.365130	-33.635860	-64.922540	-21.498240	-2.027600	 6.559038	 9.033609	-5.188889	 0.308190	 3.541030	-5.234859	 0.342567	 0.430617	-0.197183	 13.849040	-4.738545	 1.662401	-22.999870	-0.552254	 97.243260	 64.375750	-160.005000	-6.604849	 5.019823	 49.872730	 4.747322	 10.390670	 40.263540	 10.876840	-63.932300	 13.021890	 1.803333	 3.979147	-15.098590	 4.898592	 3.004813	-9.310344	 5.224449	 0.395017	 2.014677
-0.033470	 0.233762	 1.082256	 1.051625	 31.749610	-6.291051	 8.589620	-77.540370	-172.122700	 4.730012	-66.131260	 4.708465	 0.488930	 74.714580	-0.783462	-2.385832	 28.452790	-0.000001	 47.097890	-76.230620	-136.813200	-14.516840	-68.723970	-8.742116	 22.559510	 73.466980	-11.343300	 2.384659	 28.388700	-0.000001	-9.778617	 13.980790	 1.483556	-2.492427	 20.058750	 3.208439	 0.561541	-1.109442	 1.531581	-98.557310	 68.700610	 157.915900	 9.719893	-1.474156	-57.907370	-22.404800	 2.600349	-9.381850	-33.248260	-64.735530	-21.212520	-2.027600	 6.559038	 9.033609	-5.188889	 0.308190	 3.541030	-5.234859	 0.342567	 0.430617	-0.443423	 11.681500	-4.219250	 1.925950	-20.886440	-0.683558	 97.114530	 64.168660	-160.521500	-7.262373	 4.998926	 49.343670	 4.793103	 10.776040	 41.303420	 10.541620	-63.425550	 13.317690	 1.803333	 3.979147	-15.098590	 4.898592	 3.004813	-9.310344	 5.224449	 0.395017	 2.014677
-0.031730	 0.233078	 1.093257	 0.886565	 30.983480	-5.929272	 6.724584	-75.774060	-173.923500	 4.372654	-64.570920	 4.327065	 0.399106	 74.032150	-0.811337	-2.385832	 28.452790	-0.000001	 40.931620	-75.014050	-142.835300	-14.057470	-67.076460	-8.217446	 21.689650	 72.871930	-10.420710	 2.384659	 28.388700	-0.000001	-9.390253	 13.748060	 1.478270	-2.486999	 20.162550	 3.235387	 0.961934	-1.757567	 1.217272	-98.163480	 69.206590	 158.392800	 10.341510	 0.383062	-58.522860	-22.189610	 2.607123	-9.398040	-32.856330	-64.153490	-21.093410	-2.027600	 6.559038	 9.033609	-5.188889	 0.308190	 3.541030	-5.234859	 0.342567	 0.430617	-0.690647	 8.831748	-3.585120	 2.177997	-18.144210	-0.953919	 96.941400	 64.121400	-161.005800	-8.058346	 5.325476	 48.687660	 4.648292	 11.121950	 42.579270	 9.772177	-62.425310	 13.345210	 1.803333	 3.979147	-15.098590	 4.898592	 3.004813	-9.310344	 5.224449	 0.395017	 2.014677
-0.030102	 0.232240	 1.103083	 0.752788	 30.256620	-5.594432	 5.407949	-74.135780	-175.194200	 4.096795	-63.184490	 4.029688	 0.362983	 73.454080	-0.865484	-2.385833	 28.452760	 0.000004	 36.130020	-73.771900	-147.514100	-13.738710	-65.612610	-7.835751	 21.060480	 72.360950	-9.723246	 2.384659	 28.388700	-0.000001	-9.047181	 13.527790	 1.461503	-2.502739	 20.255620	 3.274820	 1.296691	-2.397693	 0.939972	-97.721300	 69.835930	 158.837700	 10.956530	 2.185573	-59.122160	-21.968400	 2.610048	-9.407475	-32.540810	-63.312920	-21.170500	-2.027600	 6.559038	 9.033609	-5.188889	 0.308190	 3.541030	-5.234859	 0.342567	 0.430617	-0.870857	 6.011104	-2.992821	 2.364820	-15.457780	-1.292442	 96.770250	 64.240850	-161.345300	-8.803833	 5.916749	 48.071540	 4.348655	 11.344820	 43.819810	 8.797515	-61.170390	 13.156600	 1.803333	 3.979147	-15.098590	 4.898592	 3.004813	-9.310344	 5.224449	 0.395017	 2.014677
-0.028238	 0.231175	 1.113356	 0.656983	 29.528770	-5.269055	 4.377567	-72.427990	-176.160900	 3.846419	-61.699380	 3.754972	 0.407970	 72.844110	-0.979302	-2.385833	 28.452750	 0.000004	 31.959470	-72.372040	-151.539900	-13.441360	-64.066930	-7.469761	 20.524190	 71.826020	-9.085822	 2.384659	 28.388700	-0.000001	-8.697610	 13.271950	 1.421080	-2.521129	 20.266130	 3.302519	 1.603047	-2.990937	 0.682891	-97.268060	 70.494520	 159.273700	 11.621870	 4.016119	-59.686340	-21.742350	 2.611240	-9.413657	-32.051190	-62.204770	-21.173770	-2.027600	 6.559038	 9.033609	-5.188889	 0.308190	 3.541030	-5.234859	 0.342567	 0.430617	-1.019161	 3.219850	-2.443044	 2.556763	-12.804780	-1.627284	 96.589480	 64.394630	-161.688600	-9.591930	 6.568956	 47.418140	 4.006619	 11.577560	 45.196890	 7.794973	-59.645530	 13.004320	 1.803333	 3.979147	-15.098590	 4.898592	 3.004813	-9.310344	 5.224449	 0.395017	 2.014677
-0.025947	 0.230136	 1.125476	 0.562234	 28.625480	-4.832174	 3.319982	-70.373580	-177.180000	 3.737211	-59.924540	 3.596103	 0.492617	 72.154510	-1.218588	-2.385833	 28.452760	 0.000004	 27.597640	-70.600260	-155.735200	-13.245700	-62.190780	-7.174363	 20.076120	 71.211010	-8.451376	 2.384659	 28.388700	-0.000001	-8.277977	 13.031010	 1.350136	-2.532736	 20.376620	 3.246611	 1.956312	-3.783711	 0.474210	-96.346720	 72.020580	 159.731000	 12.491080	 6.659940	-60.887520	-21.425520	 2.609877	-9.416805	-31.374010	-60.639610	-21.060760	-2.027600	 6.559038	 9.033609	-5.188889	 0.308190	 3.541030	-5.234859	 0.342567	 0.430617	-1.168237	-0.257325	-2.293799	 2.878877	-9.473027	-1.679788	 96.097940	 65.333100	-162.190800	-10.515840	 8.179994	 47.301340	 3.491002	 11.705800	 46.698030	 6.711826	-57.968390	 12.789590	 1.803333	 3.979147	-15.098590	 4.898592	 3.004813	-9.310344	 5.224449	 0.395017	 2.014677
-0.023951	 0.228971	 1.136238	 0.500825	 27.823510	-4.465721	 2.563964	-68.515220	-177.898200	 3.651002	-58.312110	 3.462768	 0.530347	 71.530250	-1.374260	-2.385833	 28.452760	 0.000004	 24.326990	-68.928480	-158.851000	-13.090340	-60.493160	-6.924429	 19.637920	 70.650370	-7.819300	 2.384659	 28.388700	-0.000001	-7.885286	 12.803060	 1.291017	-2.540389	 20.420500	 3.208668	 2.236493	-4.451160	 0.297137	-95.503750	 73.365590	 160.094100	 13.291550	 8.985084	-61.963050	-21.139960	 2.606734	-9.416182	-30.651820	-58.990100	-20.967580	-2.027600	 6.559038	 9.033609	-5.188889	 0.308190	 3.541030	-5.234859	 0.342567	 0.430617	-1.291803	-3.305220	-2.173388	 3.143606	-6.555654	-1.755757	 95.668160	 66.159340	-162.633500	-11.350010	 9.593542	 47.212190	 3.021129	 11.807050	 48.075600	 5.722187	-56.203210	 12.669620	 1.803333	 3.979147	-15.098590	 4.898592	 3.004813	-9.310344	 5.224449	 0.395017	 2.014677
-0.022141	 0.227570	 1.146652	 0.485066	 26.987030	-4.117875	 1.828844	-66.633310	-178.568600	 3.638873	-56.733620	 3.392555	 0.495787	 70.905360	-1.486270	-2.385833	 28.452750	 0.000004	 21.503670	-67.182980	-161.519600	-12.560120	-58.860660	-6.355066	 19.048410	 70.159160	-7.248018	 2.384659	 28.388700	-0.000001	-7.488138	 12.591770	 1.238916	-2.556681	 20.510360	 3.138761	 2.495766	-5.179449	 0.168041	-94.633660	 74.681060	 160.460500	 14.087010	 10.981120	-62.216950	-20.742130	 3.542914	-10.962960	-29.678570	-57.093680	-20.890270	-2.027600	 6.559038	 9.033609	-5.188889	 0.308190	 3.541030	-5.234859	 0.342567	 0.430617	-1.409837	-6.553401	-2.252486	 3.401014	-3.472178	-1.760671	 95.226650	 67.025170	-163.077000	-12.239570	 10.967180	 47.224860	 2.582144	 11.896350	 49.395110	 4.617528	-54.209510	 12.442860	 1.803333	 3.979147	-15.098590	 4.898592	 3.004813	-9.310344	 5.224449	 0.395017	 2.014677
